inDegrees=no
num_controls=7
num_derivatives=13
num_iterations=84
num_multipliers=7
num_parameters=0
num_slacks=7
num_states=26
objective=0.345990
objective_accelerations=0.031895
objective_balance=0.002018
objective_effort=0.061645
objective_height=0.245645
objective_ligament=0.004787
solver_duration=955.548940
status=Solve_Succeeded
success=true
DataType=double
version=3
OpenSimVersion=4.5
endheader
time	/jointset/ground_pelvis/pelvis_tilt/value	/jointset/ground_pelvis/pelvis_tx/value	/jointset/ground_pelvis/pelvis_ty/value	/jointset/hip_r/hip_flexion_r/value	/jointset/hip_r/hip_adduction_r/value	/jointset/hip_r/hip_rotation_r/value	/jointset/back/lumbar_extension/value	/jointset/patellofemoral_r/patellar_flexion_r/value	/jointset/knee_r/knee_flexion_r/value	/jointset/knee_r/knee_adduction_r/value	/jointset/knee_r/knee_rotation_r/value	/jointset/ankle_r/ankle_angle_r/value	/jointset/subtalar_r/subtalar_angle_r/value	/jointset/ground_pelvis/pelvis_tilt/speed	/jointset/ground_pelvis/pelvis_tx/speed	/jointset/ground_pelvis/pelvis_ty/speed	/jointset/hip_r/hip_flexion_r/speed	/jointset/hip_r/hip_adduction_r/speed	/jointset/hip_r/hip_rotation_r/speed	/jointset/back/lumbar_extension/speed	/jointset/patellofemoral_r/patellar_flexion_r/speed	/jointset/knee_r/knee_flexion_r/speed	/jointset/knee_r/knee_adduction_r/speed	/jointset/knee_r/knee_rotation_r/speed	/jointset/ankle_r/ankle_angle_r/speed	/jointset/subtalar_r/subtalar_angle_r/speed	/forceset/tau_hip_flexion_r	/forceset/tau_hip_adduction_r	/forceset/tau_hip_rotation_r	/forceset/tau_knee_flexion_r	/forceset/tau_ankle_angle_r	/forceset/tau_subtalar_angle_r	/forceset/tau_lumbar_extension	lambda_cid13_p0	lambda_cid14_p0	lambda_cid14_p1	lambda_cid14_p2	lambda_cid14_p3	lambda_cid14_p4	lambda_cid14_p5	/jointset/ground_pelvis/pelvis_tilt/accel	/jointset/ground_pelvis/pelvis_tx/accel	/jointset/ground_pelvis/pelvis_ty/accel	/jointset/hip_r/hip_flexion_r/accel	/jointset/hip_r/hip_adduction_r/accel	/jointset/hip_r/hip_rotation_r/accel	/jointset/back/lumbar_extension/accel	/jointset/patellofemoral_r/patellar_flexion_r/accel	/jointset/knee_r/knee_flexion_r/accel	/jointset/knee_r/knee_adduction_r/accel	/jointset/knee_r/knee_rotation_r/accel	/jointset/ankle_r/ankle_angle_r/accel	/jointset/subtalar_r/subtalar_angle_r/accel	gamma_cid13_p0	gamma_cid14_p0	gamma_cid14_p1	gamma_cid14_p2	gamma_cid14_p3	gamma_cid14_p4	gamma_cid14_p5
1.5	-0.1634058821650438	-0.04288266681972847	0.5353335431315205	1.638476293282925	-0.2432646029048397	-0.001327360479565122	-0.7668071397588464	1.787678000633728	1.787678000633723	-0.1652649168168344	0.172374289227073	0.4362117221754097	0.1642865000618584	0.3970179721227177	0.1009200371790171	1.102876496083097	-3.16080198563865	0.009368779599006782	-0.6134775454521587	0.2938815004969387	-2.655028831387573	-2.655028831387448	0.1763563340580699	0.004274703891493621	0.03429478166865754	0.04993012259262607	-0.3539530064802581	-0.01753379428599766	0.005643700144782595	-0.5974114002952106	0.07595534496728615	0.003998690301348746	0.4070730350694078	-0.04027774265481657	-31.87063229467602	-7.408046376864442	5.674335967403605	-6.388851279740083	-841.1951429912767	99.2634386285423	2.482447126620295	1.287349091304805	2.6115531837479	-7.404621138415691	1.029706027277577	0.2796761613680875	3.193587402598761	-9.023462882079775	-9.023462882079714	2.003089059944889	0.1899072152030075	-4.384226292919987	-0.2335483943492484	7.686782080710432e-07	2.072731711088047e-07	8.376585766833234e-07	2.160324394027227e-06	8.220799471520352e-07	-1.535446258211631e-07	8.633872631956058e-06
1.51	-0.1593117351422689	-0.04180815369489146	0.5464896652362498	1.606504313565237	-0.2431209526665102	-0.007445151896759591	-0.7637056660555493	1.760679150425149	1.760679150425145	-0.1633966759841015	0.1724302761893965	0.4363313288713246	0.1647689585545801	0.4217810926884791	0.1140678423827376	1.128047544355629	-3.233079520777739	0.01936055400670807	-0.6098930781019	0.3266990858536711	-2.744552731384674	-2.744552731384633	0.1974729711578774	0.006877551468263892	-0.01070653147594839	0.04637192539122438	-0.347369647129594	-0.01639763368911338	0.00732622661296393	-0.588600392638491	0.07389913643013578	0.004929922293436476	0.4011648653744349	-0.04081578778744489	-31.77044168540378	-6.825792923322968	5.398434457590833	-6.8718334359016	-831.3782319611472	98.6331153193487	2.468802512052463	1.341491645966021	2.424818767920049	-7.062059728992531	0.9838404984301968	0.4265023106707855	3.368720955891852	-8.888701147728687	-8.888701147741376	2.192591058463338	0.2890762382837201	-4.608035055529042	-0.4452924428863216	6.554720368412408e-07	6.33153607683701e-08	1.723903045321152e-07	1.482515572489291e-06	9.633394604587477e-07	-6.806173833266988e-08	6.595828674265318e-06
1.52	-0.1549708453157354	-0.0405995634358051	0.5578884854474869	1.573825010490691	-0.24287739921392	-0.01352136458270116	-0.7602674411279494	1.732790691698758	1.732790691698754	-0.1613119407756524	0.1725110121693567	0.4359909321897845	0.1652101676633181	0.4463665328741751	0.1277354640288883	1.151416117384702	-3.30226665701031	0.02934942245096081	-0.6051617991989994	0.3612317453576559	-2.832950534949914	-2.832950534949958	0.2196552091962688	0.009224507419822456	-0.05770589383248008	0.04168024579579409	-0.3407862877789367	-0.01526147309223456	0.009008753081086885	-0.579789384981776	0.07184292789298448	0.005861154285514748	0.3952566956794556	-0.04126512282504223	-31.70079693986726	-6.230486584152825	5.09943288511424	-7.263670826261404	-822.007380381614	98.17884763833987	2.446911050607189	1.391312379790834	2.251058135055901	-6.786541357112036	1.029124834587888	0.5090384718964081	3.536602232049217	-8.798243595707714	-8.798243595707726	2.216209247661661	0.1387288901606723	-4.783836135305137	-0.460244873154978	5.254810257158291e-07	-1.074466275646526e-07	-6.226035117804995e-07	6.864130929691147e-07	1.111633772206031e-06	2.542734774923402e-08	4.333465583083569e-06
1.53	-0.1503852622405232	-0.03925192691511003	0.5695117413985611	1.540469047105357	-0.2425342891864792	-0.01954609988093313	-0.7564760217426156	1.704023959583043	1.704023959583041	-0.1590012000691481	0.1726138484194572	0.4351710842180908	0.165598480498454	0.4706852215549251	0.1418529313216933	1.172910051779714	-3.368421022746465	0.03925372045121404	-0.5995441892253339	0.3972740250878969	-2.920190783703235	-2.920190783703248	0.242744845073001	0.01126923491118293	-0.1065481891778488	0.03578311362802375	-0.3329478134398078	-0.01421468346281834	0.0105769501502989	-0.5690578059490248	0.06930941966188892	0.00665486413901403	0.3878879780920065	-0.04170609576661747	-31.67779766277925	-5.7070084097112	4.816377071268639	-7.352024448854455	-810.683635519867	97.2638731637373	2.414655182601289	1.431397744600079	2.04984433952741	-6.454113451182652	0.968062648607757	0.6247004721194871	3.671324850330091	-8.656209545153379	-8.656209545148636	2.392718166989822	0.2261245115107305	-4.977081322126614	-0.6847301885332605	3.776561222013327e-07	-3.066880550148e-07	-1.555430718764607e-06	-2.353763981571911e-07	1.267402557296422e-06	1.274230198366367e-07	1.832763412567625e-06
1.54	-0.1455584307973446	-0.03776122895337188	0.5813401933431456	1.506466694208798	-0.242092740105862	-0.02550734343703573	-0.7523175227586164	1.674390966173793	1.674390966173793	-0.1564520875219943	0.1727348879110449	0.4338542822753482	0.1659217654519236	0.4946162064673695	0.1563477522375049	1.192455316086847	-3.431544559255237	0.04903723308601528	-0.5924634507709516	0.4346476650908773	-3.006202793656921	-3.006202793656902	0.2673295773221637	0.01286515571802414	-0.1570966880421721	0.02867466946244493	-0.3251093391006906	-0.01316789383340586	0.01214514721946116	-0.5583262269162786	0.06677591143079374	0.007448573992507721	0.3805192605045465	-0.04210035140190599	-31.68593584998502	-5.17166453465995	4.511649753862597	-7.349469388414001	-799.8150638810188	96.51507971486645	2.369370296946014	1.466783104392168	1.861324117480271	-6.180375511635388	1.004967761497502	0.8016641680397648	3.802874286597056	-8.552595835780576	-8.552595835780577	2.515228522147745	0.048967553256833	-5.125076839095994	-0.7025072727166765	2.249770410838897e-07	-5.044822552939821e-07	-2.495681032555794e-06	-1.176187019784704e-06	1.401902474786345e-06	2.381810356461282e-07	-6.238452326393898e-07
